<svg version="1.1" xmlns="http://www.w3.org/2000/svg" style="display: block;" viewBox="0 0 2048 2048" width="512" height="512" preserveAspectRatio="none">
<defs>
	<linearGradient id="Gradient1" gradientUnits="userSpaceOnUse" x1="1352.31" y1="93.8303" x2="758.993" y2="131.871">
		<stop class="stop0" offset="0" stop-opacity="1" stop-color="rgb(129,88,250)"/>
		<stop class="stop1" offset="1" stop-opacity="1" stop-color="rgb(86,144,250)"/>
	</linearGradient>
	<linearGradient id="Gradient2" gradientUnits="userSpaceOnUse" x1="1378.74" y1="1938.01" x2="743.543" y2="1945.56">
		<stop class="stop0" offset="0" stop-opacity="1" stop-color="rgb(130,88,252)"/>
		<stop class="stop1" offset="1" stop-opacity="1" stop-color="rgb(86,145,250)"/>
	</linearGradient>
	<linearGradient id="Gradient3" gradientUnits="userSpaceOnUse" x1="2030.27" y1="1009.36" x2="1343.16" y2="1016.64">
		<stop class="stop0" offset="0" stop-opacity="1" stop-color="rgb(187,24,252)"/>
		<stop class="stop1" offset="1" stop-opacity="1" stop-color="rgb(130,89,250)"/>
	</linearGradient>
	<linearGradient id="Gradient4" gradientUnits="userSpaceOnUse" x1="765.919" y1="1022.62" x2="16.6852" y2="1017.3">
		<stop class="stop0" offset="0" stop-opacity="1" stop-color="rgb(86,145,250)"/>
		<stop class="stop1" offset="1" stop-opacity="1" stop-color="rgb(31,212,248)"/>
	</linearGradient>
</defs>
<path transform="translate(0,0)" fill="rgb(24,228,241)" d="M 995.429 688.001 C 1189.16 674.298 1357.41 820.018 1371.5 1013.72 C 1385.6 1207.41 1240.22 1375.96 1046.55 1390.45 C 852.325 1404.98 683.19 1259.09 669.053 1064.84 C 654.916 870.584 801.146 701.745 995.429 688.001 z"/>
<path transform="translate(0,0)" fill="rgb(24,228,241)" d="M 1015.55 1438.56 C 1023.21 1439.75 1042.55 1459.94 1048.74 1466.07 C 1088.36 1505.23 1127.94 1544 1167.13 1583.59 C 1180.14 1596.81 1193.37 1609.83 1206.81 1622.62 C 1213.54 1628.97 1239.97 1651.08 1240.49 1659.24 C 1236.4 1677.92 1067.89 1833.15 1044.53 1862.99 C 1041.54 1866.82 1030.2 1877.29 1025.8 1880.72 C 1016.9 1884.31 1010.62 1876.81 1004.21 1870.46 C 987.781 1854.18 972.042 1837.34 955.584 1821.03 L 858.139 1722.61 C 847.009 1711.4 835.278 1700.77 824.238 1689.46 C 818.942 1684.04 801.254 1667.21 802.117 1659.02 C 803.211 1648.65 949.765 1505.69 970.243 1484.91 C 985.077 1469.87 998.488 1450.89 1015.55 1438.56 z"/>
<path transform="translate(0,0)" fill="rgb(24,228,241)" d="M 1017.14 199.834 C 1023.89 199.273 1030.62 204.871 1035.29 209.292 C 1051.79 224.911 1067.87 241.322 1084.02 257.287 L 1180.51 353.792 C 1196.91 370.532 1215.93 386.491 1231.12 404.152 C 1234.96 408.623 1236.45 413.261 1235.67 419.109 C 1230.74 427.85 1212.3 445.489 1204.51 453.376 L 1159.37 499.086 L 1073.77 586.308 C 1055.24 604.956 1042.26 620.015 1020.6 635.483 C 1020.05 635.506 1019.5 635.53 1018.95 635.553 C 1010.96 632.364 996.125 617.637 989.878 611.964 C 975.996 599.358 963.643 584.997 950.379 572.273 C 920.042 543.172 890.246 513.801 861.23 483.435 C 843.881 465.279 824.247 448.548 808.399 428.764 C 806.394 426.261 801.091 419.845 801.75 416.824 C 802.731 412.33 805.151 409.202 808.316 405.987 C 823.848 390.209 840.506 375.425 856.37 359.958 L 947.594 269.604 C 963.495 253.863 1000.79 210.01 1017.14 199.834 z"/>
<path transform="translate(0,0)" fill="rgb(24,228,241)" d="M 404.829 818.079 C 412.181 820.079 415.259 822.852 420.7 828.071 C 434.857 841.649 448.494 855.776 462.375 869.636 L 536.552 943.525 C 561.24 968.283 587.343 992.683 610.899 1018.52 C 615.929 1024.04 618.435 1030.28 621.206 1037.09 C 613.736 1053.43 585.119 1078.2 571.055 1091.92 L 508.493 1153.88 C 491.36 1170.89 474.366 1188.04 457.513 1205.33 C 442.883 1220.51 428.348 1236.03 412.557 1250.07 C 409.765 1252.55 408.44 1252.46 404.752 1252.73 C 395.395 1246.26 375.557 1226.25 367.287 1217.95 L 312.215 1162.7 C 298.04 1148.6 283.397 1133.87 269.009 1120.03 C 240.174 1092.29 210.638 1067.1 186.408 1035.11 C 197.112 1015.75 246.735 971.219 265.345 952.373 L 350.515 867.187 C 363.806 853.926 388.544 824.872 404.829 818.079 z"/>
<path transform="translate(0,0)" fill="rgb(24,228,241)" d="M 1636.83 819.643 C 1641.55 819.268 1647.08 823.603 1650.35 826.749 C 1668.85 844.586 1686.05 863.63 1704.6 881.466 L 1813.79 987.337 C 1822.73 996.166 1856.39 1024.01 1856.28 1037.23 C 1856.22 1044.81 1830.36 1067.24 1823.68 1073.68 C 1812.72 1084.4 1801.95 1095.3 1791.36 1106.39 C 1767.77 1130.7 1743.16 1158.07 1718.4 1180.96 C 1692.28 1205.12 1667.23 1232.29 1640.76 1255.51 C 1633.65 1254.76 1614.14 1234.07 1608.28 1228.35 C 1591.1 1211.48 1574 1194.52 1557 1177.47 L 1465.6 1085.66 C 1456.13 1075.97 1424.3 1047.27 1422.15 1035.49 C 1425.85 1025.82 1457.82 996.913 1467.17 987.676 L 1548.33 907.304 C 1568.95 886.527 1588.87 864.892 1609.79 844.47 C 1617.89 836.571 1627.92 826.296 1636.83 819.643 z"/>
<path transform="translate(0,0)" fill="url(#Gradient4)" d="M 743.862 1993.69 C 310.169 1868.34 12.4602 1470.24 14.8231 1018.8 C 17.186 567.362 319.046 172.397 754.027 51.5976 C 759.423 58.7701 761.564 52.9364 761.424 58.4662 C 757.309 64.9869 758.964 62.4277 761.023 69.3968 C 765.057 83.0555 761.113 99.842 761.496 114.643 C 761.836 127.743 767.281 143.637 761.437 154.363 C 762.415 161.421 765.818 162.179 771.631 164.565 L 772.929 166.484 C 772.126 169.948 768.959 170.825 765.788 172.383 C 767.648 174.231 768.176 173.817 771.185 174.53 C 731.9 187.084 696.266 199.563 658.476 216.737 C 477.227 298.652 328.923 439.332 237.567 616.011 C 127.547 828.706 107.971 1076.79 183.271 1304.11 C 262.502 1550.94 459.106 1753.95 697.792 1848.46 C 718.267 1856.57 738.857 1862.92 759.618 1870 L 752.325 1872.07 C 754.27 1875.32 754.302 1874.01 754.209 1876.99 C 751.654 1879.7 751.837 1878.45 751.558 1881.17 L 752.094 1882.3 C 753.852 1886.08 754.393 1886.61 754.212 1890.56 C 751.628 1896.34 748.362 1897.3 746.166 1901.97 C 744.17 1906.23 748.916 1914.14 748.588 1918.25 C 748.041 1925.1 743.164 1939.78 743.951 1946.18 C 745.849 1948.74 745.662 1948.6 748.57 1949.89 C 750.814 1967.87 743.63 1972.75 744.199 1987.77 C 744.264 1989.47 744.683 1991.61 743.862 1993.69 z"/>
<path transform="translate(0,0)" fill="url(#Gradient3)" d="M 1336.12 64.2354 C 1744.13 196.869 2023.7 572.945 2033.14 1001.87 C 2042.59 1430.79 1779.84 1818.8 1378.07 1969.27 C 1376.09 1968.13 1376.04 1968.14 1374.23 1966.72 L 1374.39 1964.62 L 1378.6 1961.93 L 1378.37 1960.45 C 1373.04 1955.72 1360.52 1950.31 1360.83 1943.11 C 1361.67 1924.01 1357.53 1903.02 1362.88 1884.07 C 1365.22 1875.8 1364.68 1874.21 1369.72 1867.43 C 1373.31 1862.62 1364.58 1863.26 1362.98 1858.62 C 1364.13 1856.15 1364.96 1854.58 1366.27 1852.24 L 1365.67 1850.66 C 1362.31 1850.13 1357.51 1852.21 1354.08 1853.34 C 1350.77 1850.66 1350.93 1850.61 1346.97 1849.3 C 1350.88 1847.81 1354.77 1846.28 1358.65 1844.7 C 1574.32 1756.44 1746.75 1587.07 1838.87 1373.02 C 1932.54 1153.3 1933.93 905.143 1842.73 684.387 C 1770.49 510.049 1644.44 363.348 1482.97 265.675 C 1435.24 236.807 1396.84 218.969 1345.94 197.603 L 1346.31 196.385 C 1344.99 192.553 1346.4 191.073 1345.49 187.981 C 1344.29 183.872 1341.43 180.577 1342.14 176.071 C 1343.49 167.534 1346.94 156.374 1346.98 147.908 C 1347.04 136.926 1343.87 123.073 1345.04 112.244 C 1345.82 104.991 1353.21 97.9806 1352.97 89.1414 C 1351.32 88.9127 1350.57 88.9476 1348.94 89.0974 C 1348.22 85.2931 1347.44 80.1463 1346.16 76.6215 C 1341.8 74.7595 1338.12 73.2373 1335.24 69.1721 C 1334.46 68.0752 1335.58 66.0085 1336.12 64.2354 z"/>
<path transform="translate(0,0)" fill="url(#Gradient2)" d="M 759.618 1870 C 821.895 1888.97 880.097 1900.78 944.815 1907.53 C 960.417 1908.65 976.388 1908.87 991.996 1909.45 C 1110.76 1913.87 1236.15 1894.68 1346.97 1849.3 C 1350.93 1850.61 1350.77 1850.66 1354.08 1853.34 C 1357.51 1852.21 1362.31 1850.13 1365.67 1850.66 L 1366.27 1852.24 C 1364.96 1854.58 1364.13 1856.15 1362.98 1858.62 C 1364.58 1863.26 1373.31 1862.62 1369.72 1867.43 C 1364.68 1874.21 1365.22 1875.8 1362.88 1884.07 C 1357.53 1903.02 1361.67 1924.01 1360.83 1943.11 C 1360.52 1950.31 1373.04 1955.72 1378.37 1960.45 L 1378.6 1961.93 L 1374.39 1964.62 L 1374.23 1966.72 C 1376.04 1968.14 1376.09 1968.13 1378.07 1969.27 C 1174.79 2045.39 952.39 2053.96 743.862 1993.69 C 744.683 1991.61 744.264 1989.47 744.199 1987.77 C 743.63 1972.75 750.814 1967.87 748.57 1949.89 C 745.662 1948.6 745.849 1948.74 743.951 1946.18 C 743.164 1939.78 748.041 1925.1 748.588 1918.25 C 748.916 1914.14 744.17 1906.23 746.166 1901.97 C 748.362 1897.3 751.628 1896.34 754.212 1890.56 C 754.393 1886.61 753.852 1886.08 752.094 1882.3 L 751.558 1881.17 C 751.837 1878.45 751.654 1879.7 754.209 1876.99 C 754.302 1874.01 754.27 1875.32 752.325 1872.07 L 759.618 1870 z"/>
<path transform="translate(0,0)" fill="url(#Gradient1)" d="M 754.027 51.5976 C 945.088 -1.46227 1147.54 2.93326 1336.12 64.2354 C 1335.58 66.0085 1334.46 68.0752 1335.24 69.1721 C 1338.12 73.2373 1341.8 74.7595 1346.16 76.6215 C 1347.44 80.1463 1348.22 85.2931 1348.94 89.0974 C 1350.57 88.9476 1351.32 88.9127 1352.97 89.1414 C 1353.21 97.9806 1345.82 104.991 1345.04 112.244 C 1343.87 123.073 1347.04 136.926 1346.98 147.908 C 1346.94 156.374 1343.49 167.534 1342.14 176.071 C 1341.43 180.577 1344.29 183.872 1345.49 187.981 C 1346.4 191.073 1344.99 192.553 1346.31 196.385 L 1345.94 197.603 C 1334.4 194.55 1313.85 186.344 1301.64 182.253 C 1277.72 174.372 1253.48 167.487 1228.99 161.616 C 1076.05 124.513 921.865 131.745 771.185 174.53 C 768.176 173.817 767.648 174.231 765.788 172.383 C 768.959 170.825 772.126 169.948 772.929 166.484 L 771.631 164.565 C 765.818 162.179 762.415 161.421 761.437 154.363 C 767.281 143.637 761.836 127.743 761.496 114.643 C 761.113 99.842 765.057 83.0555 761.023 69.3968 C 758.964 62.4277 757.309 64.9869 761.424 58.4662 C 761.564 52.9364 759.423 58.7701 754.027 51.5976 z"/>
</svg>